<svg width="1285pt" height="1022pt"
 viewBox="0.00 0.00 1285.00 1022.00" xmlns="http://www.w3.org/2000/svg" xmlns:xlink="http://www.w3.org/1999/xlink">
<g id="graph0" class="graph" transform="scale(1 1) rotate(0) translate(21.6 1000.6)">
<title>er</title>
<g id="clust1" class="cluster">

<path stroke-width="1.5" d="M407.84,-779C407.84,-779 863.31,-779 863.31,-779 869.31,-779 875.31,-785 875.31,-791 875.31,-791 875.31,-959 875.31,-959 875.31,-965 869.31,-971 863.31,-971 863.31,-971 407.84,-971 407.84,-971 401.84,-971 395.84,-965 395.84,-959 395.84,-959 395.84,-791 395.84,-791 395.84,-785 401.84,-779 407.84,-779" class="f-hum s-hum"/>
<text xml:space="preserve" text-anchor="middle" x="455.59" y="-957.98" font-family="Helvetica,sans-Serif" font-size="9.50" class="t-hum"> &#160;IDENTITY &amp; ACCESS &#160;</text>
</g>
<g id="clust2" class="cluster">

<path stroke-width="1.5" d="M20,-311C20,-311 497.01,-311 497.01,-311 503.01,-311 509.01,-317 509.01,-323 509.01,-323 509.01,-424 509.01,-424 509.01,-430 503.01,-436 497.01,-436 497.01,-436 20,-436 20,-436 14,-436 8,-430 8,-424 8,-424 8,-323 8,-323 8,-317 14,-311 20,-311" class="f-srv s-srv"/>
<text xml:space="preserve" text-anchor="middle" x="58" y="-422.98" font-family="Helvetica,sans-Serif" font-size="9.50" class="t-srv"> &#160;ORGANISATION &#160;</text>
</g>
<g id="clust3" class="cluster">

<path stroke-width="1.5" d="M343.34,-8C343.34,-8 913.93,-8 913.93,-8 919.93,-8 925.93,-14 925.93,-20 925.93,-20 925.93,-158 925.93,-158 925.93,-164 919.93,-170 913.93,-170 913.93,-170 343.34,-170 343.34,-170 337.34,-170 331.34,-164 331.34,-158 331.34,-158 331.34,-20 331.34,-20 331.34,-14 337.34,-8 343.34,-8" class="f-fmt s-fmt"/>
<text xml:space="preserve" text-anchor="middle" x="443.59" y="-156.97" font-family="Helvetica,sans-Serif" font-size="9.50" class="t-fmt"> &#160;STUDENT IDENTITY — 2.1 live · 2.0 archived &#160;</text>
</g>
<g id="clust4" class="cluster">

<path stroke-width="1.5" d="M754.26,-245C754.26,-245 1185.73,-245 1185.73,-245 1191.73,-245 1197.73,-251 1197.73,-257 1197.73,-257 1197.73,-425 1197.73,-425 1197.73,-431 1191.73,-437 1185.73,-437 1185.73,-437 754.26,-437 754.26,-437 748.26,-437 742.26,-431 742.26,-425 742.26,-425 742.26,-257 742.26,-257 742.26,-251 748.26,-245 754.26,-245" class="f-ana s-ana"/>
<text xml:space="preserve" text-anchor="middle" x="788.89" y="-423.98" font-family="Helvetica,sans-Serif" font-size="9.50" class="t-ana"> &#160;SUBMISSIONS &#160;</text>
</g>
<g id="clust5" class="cluster">

<path stroke-width="1.5" d="M791.01,-178C791.01,-178 1198.1,-178 1198.1,-178 1204.1,-178 1210.1,-184 1210.1,-190 1210.1,-190 1210.1,-224 1210.1,-224 1210.1,-230 1204.1,-236 1198.1,-236 1198.1,-236 791.01,-236 791.01,-236 785.01,-236 779.01,-230 779.01,-224 779.01,-224 779.01,-190 779.01,-190 779.01,-184 785.01,-178 791.01,-178" class="f-uix s-uix"/>
<text xml:space="preserve" text-anchor="middle" x="840.64" y="-222.97" font-family="Helvetica,sans-Serif" font-size="9.50" class="t-uix"> &#160;CROSS&#45;SUBMISSION &#160;</text>
</g>
<g id="clust6" class="cluster">

<path stroke-width="1.5" d="M414.97,-445C414.97,-445 858.81,-445 858.81,-445 864.81,-445 870.81,-451 870.81,-457 870.81,-457 870.81,-558 870.81,-558 870.81,-564 864.81,-570 858.81,-570 858.81,-570 414.97,-570 414.97,-570 408.97,-570 402.97,-564 402.97,-558 402.97,-558 402.97,-457 402.97,-457 402.97,-451 408.97,-445 414.97,-445" class="f-tra s-tra"/>
<text xml:space="preserve" text-anchor="middle" x="434.22" y="-556.98" font-family="Helvetica,sans-Serif" font-size="9.50" class="t-tra"> &#160;INGEST &#160;</text>
</g>
<g id="clust7" class="cluster">

<path stroke-width="1.5" d="M776.39,-578C776.39,-578 873.81,-578 873.81,-578 879.81,-578 885.81,-584 885.81,-590 885.81,-590 885.81,-758 885.81,-758 885.81,-764 879.81,-770 873.81,-770 873.81,-770 776.39,-770 776.39,-770 770.39,-770 764.39,-764 764.39,-758 764.39,-758 764.39,-590 764.39,-590 764.39,-584 770.39,-578 776.39,-578" class="f-road s-road"/>
<text xml:space="preserve" text-anchor="middle" x="808.76" y="-756.98" font-family="Helvetica,sans-Serif" font-size="9.50" class="t-road"> &#160;OPERATIONS &#160;</text>
</g>

<g id="node1" class="node">
<title>users</title>
<polygon stroke-width="1.3" points="485.43,-811.11 431.43,-811.11 431.43,-786.89 485.43,-786.89 485.43,-811.11" class="f-hum s-hum"/>
<text xml:space="preserve" text-anchor="middle" x="458.43" y="-795.12" font-family="Helvetica,sans-Serif" font-size="10.00" class="t-ink">users</text>
</g>

<g id="node2" class="node">
<title>sessions</title>
<polygon stroke-width="1.3" points="857.56,-878.11 792.64,-878.11 792.64,-853.89 857.56,-853.89 857.56,-878.11" class="f-hum s-hum"/>
<text xml:space="preserve" text-anchor="middle" x="825.1" y="-862.12" font-family="Helvetica,sans-Serif" font-size="10.00" class="t-ink">sessions</text>
</g>

<g id="edge1" class="edge">

<path fill="none" stroke-width="1.1" d="M485.94,-803.87C549.84,-815.61 712.48,-845.49 786.45,-859.08" class="s-edge"/>
<polygon stroke-width="1.1" points="786.27,-859.05 791.23,-862.48 789.34,-859.61 791.32,-859.98 791.32,-859.98 791.32,-859.98 789.34,-859.61 792.13,-857.61 786.27,-859.05" class="a-edge s-edge"/>
</g>

<g id="node3" class="node">
<title>api_tokens</title>
<polygon stroke-width="1.3" points="861.68,-945.11 788.51,-945.11 788.51,-920.89 861.68,-920.89 861.68,-945.11" class="f-hum s-hum"/>
<text xml:space="preserve" text-anchor="middle" x="825.1" y="-929.12" font-family="Helvetica,sans-Serif" font-size="10.00" class="t-ink">api_tokens</text>
</g>

<g id="edge2" class="edge">

<path fill="none" stroke-width="1.1" d="M486.02,-805.29C510.18,-811.27 546.64,-820.97 577.51,-832 648.25,-857.28 662.48,-872.17 732.26,-900 748.66,-906.54 766.93,-913.23 782.82,-918.85" class="s-edge"/>
<polygon stroke-width="1.1" points="782.58,-918.77 786.95,-922.93 785.52,-919.8 787.42,-920.47 787.42,-920.47 787.42,-920.47 785.52,-919.8 788.59,-918.26 782.58,-918.77" class="a-edge s-edge"/>
</g>

<g id="node4" class="node">
<title>memberships</title>
<polygon stroke-width="1.3" points="867.31,-811.11 782.89,-811.11 782.89,-786.89 867.31,-786.89 867.31,-811.11" class="f-hum s-hum"/>
<text xml:space="preserve" text-anchor="middle" x="825.1" y="-795.12" font-family="Helvetica,sans-Serif" font-size="10.00" class="t-ink">memberships</text>
</g>

<g id="edge3" class="edge">

<path fill="none" stroke-width="1.1" d="M485.94,-799C547.12,-799 698.83,-799 776.55,-799" class="s-edge"/>
<polygon stroke-width="1.1" points="776.6,-799 782.1,-801.48 779.72,-799 781.73,-799 781.73,-799 781.73,-799 779.72,-799 782.1,-796.53 776.6,-799" class="a-edge s-edge"/>
</g>

<g id="node24" class="node">
<title>audit</title>
<polygon stroke-width="1.3" points="857.56,-677.11 792.64,-677.11 792.64,-652.89 857.56,-652.89 857.56,-677.11" class="f-road s-road"/>
<text xml:space="preserve" text-anchor="middle" x="825.1" y="-661.12" font-family="Helvetica,sans-Serif" font-size="10.00" class="t-ink">audit_log</text>
</g>

<g id="edge27" class="edge">

<path fill="none" stroke-width="1.1" d="M485.73,-789.17C534.36,-771.01 641.63,-731.06 732.26,-698 750.13,-691.48 770,-684.33 786.67,-678.36" class="s-edge"/>
<polygon stroke-width="1.1" points="786.67,-678.36 792.68,-678.83 789.6,-677.31 791.5,-676.63 791.5,-676.63 791.5,-676.63 789.6,-677.31 791.01,-674.17 786.67,-678.36" class="a-edge s-edge"/>
</g>

<g id="node5" class="node">
<title>pending</title>
<polygon stroke-width="1.3" points="513.01,-878.11 403.84,-878.11 403.84,-853.89 513.01,-853.89 513.01,-878.11" class="f-hum s-hum"/>
<text xml:space="preserve" text-anchor="middle" x="458.43" y="-862.12" font-family="Helvetica,sans-Serif" font-size="10.00" class="t-ink">pending_invitations</text>
</g>

<g id="node6" class="node">
<title>courses</title>
<polygon stroke-width="1.3" points="76.42,-410.11 16,-410.11 16,-385.89 76.42,-385.89 76.42,-410.11" class="f-srv s-srv"/>
<text xml:space="preserve" text-anchor="middle" x="46.21" y="-394.12" font-family="Helvetica,sans-Serif" font-size="10.00" class="t-ink">courses</text>
</g>

<g id="node7" class="node">
<title>semesters</title>
<polygon stroke-width="1.3" points="225.09,-410.11 153.42,-410.11 153.42,-385.89 225.09,-385.89 225.09,-410.11" class="f-srv s-srv"/>
<text xml:space="preserve" text-anchor="middle" x="189.26" y="-394.12" font-family="Helvetica,sans-Serif" font-size="10.00" class="t-ink">semesters</text>
</g>

<g id="edge4" class="edge">

<path fill="none" stroke-width="1.1" d="M76.78,-398C97.17,-398 124.55,-398 147.08,-398" class="s-edge"/>
<polygon stroke-width="1.1" points="147.12,-398 152.62,-400.48 150.24,-398 152.25,-398 152.25,-398 152.25,-398 150.24,-398 152.62,-395.53 147.12,-398" class="a-edge s-edge"/>
</g>

<g id="edge5" class="edge">

<path fill="none" stroke-width="1.1" d="M193.24,-410.65C200.91,-441.28 223.53,-520.96 263.09,-576 286.49,-608.56 296.74,-614.73 331.34,-635 481.49,-722.96 685.33,-771.51 776.55,-790.08" class="s-edge"/>
<polygon stroke-width="1.1" points="776.64,-790.09 781.55,-793.61 779.7,-790.71 781.68,-791.11 781.68,-791.11 781.68,-791.11 779.7,-790.71 782.53,-788.76 776.64,-790.09" class="a-edge s-edge"/>
</g>

<g id="edge8" class="edge">

<path fill="none" stroke-width="1.1" d="M191.01,-410.75C194.14,-457.11 208.65,-620.3 263.09,-741 284.02,-787.41 289.16,-804.49 331.34,-833 350.96,-846.26 375.6,-854.19 397.89,-858.93" class="s-edge"/>
<polygon stroke-width="1.1" points="397.75,-858.91 402.64,-862.43 400.8,-859.53 402.77,-859.93 402.77,-859.93 402.77,-859.93 400.8,-859.53 403.63,-857.58 397.75,-858.91" class="a-edge s-edge"/>
</g>

<g id="node8" class="node">
<title>assignments</title>
<polygon stroke-width="1.3" points="499.14,-410.11 417.72,-410.11 417.72,-385.89 499.14,-385.89 499.14,-410.11" class="f-srv s-srv"/>
<text xml:space="preserve" text-anchor="middle" x="458.43" y="-394.12" font-family="Helvetica,sans-Serif" font-size="10.00" class="t-ink">assignments</text>
</g>

<g id="edge6" class="edge">

<path fill="none" stroke-width="1.1" d="M225.73,-398C273.57,-398 358.82,-398 411.5,-398" class="s-edge"/>
<polygon stroke-width="1.1" points="411.57,-398 417.07,-400.48 414.69,-398 416.7,-398 416.7,-398 416.7,-398 414.69,-398 417.07,-395.53 411.57,-398" class="a-edge s-edge"/>
</g>

<g id="node9" class="node">
<title>roster</title>
<polygon stroke-width="1.3" points="501.01,-343.11 415.84,-343.11 415.84,-318.89 501.01,-318.89 501.01,-343.11" class="f-srv s-srv"/>
<text xml:space="preserve" text-anchor="middle" x="458.43" y="-327.12" font-family="Helvetica,sans-Serif" font-size="10.00" class="t-ink">roster_entries</text>
</g>

<g id="edge7" class="edge">

<path fill="none" stroke-width="1.1" d="M225.73,-389.1C273.12,-377.22 357.21,-356.13 410,-342.89" class="s-edge"/>
<polygon stroke-width="1.1" points="409.95,-342.91 415.89,-343.97 412.97,-342.15 414.93,-341.66 414.93,-341.66 414.93,-341.66 412.97,-342.15 414.68,-339.17 409.95,-342.91" class="a-edge s-edge"/>
</g>

<g id="node12" class="node">
<title>srefs</title>
<polygon stroke-width="1.3" points="537.76,-144.48 379.09,-144.48 379.09,-107.52 537.76,-107.52 537.76,-144.48" class="f-hum s-hum"/>
<text xml:space="preserve" text-anchor="middle" x="458.43" y="-128.5" font-family="Helvetica,sans-Serif" font-size="10.00" class="t-ink2">student_refs — 2.0, archived</text>
<text xml:space="preserve" text-anchor="middle" x="458.43" y="-117.25" font-family="Helvetica,sans-Serif" font-size="10.00" class="t-ink2">opaque uuid ← (semester, sid)</text>
</g>

<g id="edge13" class="edge">

<path fill="none" stroke-width="1.1" d="M189.86,-385.48C189.35,-345.54 193.56,-220.18 263.09,-159 292.84,-132.82 335.44,-123.57 373.18,-121.3" class="s-edge"/>
<polygon stroke-width="1.1" points="372.85,-121.31 378.47,-123.5 375.97,-121.15 377.98,-121.05 377.98,-121.05 377.98,-121.05 375.97,-121.15 378.22,-118.56 372.85,-121.31" class="a-edge s-edge"/>
</g>

<g id="node18" class="node">
<title>xflags</title>
<polygon stroke-width="1.3" points="863.18,-210.1 787.01,-210.1 787.01,-185.9 863.18,-185.9 863.18,-210.1" class="f-uix s-uix"/>
<text xml:space="preserve" text-anchor="middle" x="825.1" y="-194.12" font-family="Helvetica,sans-Serif" font-size="10.00" class="t-ink">cross_flags</text>
</g>

<g id="edge23" class="edge">

<path fill="none" stroke-width="1.1" d="M203.46,-385.53C227.11,-363.92 279.12,-319.68 331.34,-297 487.81,-229.03 692.68,-207.14 780.77,-200.59" class="s-edge"/>
<polygon stroke-width="1.1" points="780.8,-200.58 786.46,-202.65 783.91,-200.36 785.92,-200.21 785.92,-200.21 785.92,-200.21 783.91,-200.36 786.11,-197.72 780.8,-200.58" class="a-edge s-edge"/>
</g>

<g id="node20" class="node">
<title>ijobs</title>
<polygon stroke-width="1.3" points="496.14,-544.11 420.72,-544.11 420.72,-519.89 496.14,-519.89 496.14,-544.11" class="f-tra s-tra"/>
<text xml:space="preserve" text-anchor="middle" x="458.43" y="-528.12" font-family="Helvetica,sans-Serif" font-size="10.00" class="t-ink">ingest_jobs</text>
</g>

<g id="edge10" class="edge">

<path fill="none" stroke-width="1.1" d="M202.04,-410.51C215.8,-424.64 239.65,-447.79 263.09,-464 309.7,-496.23 373.11,-514.62 414.64,-523.95" class="s-edge"/>
<polygon stroke-width="1.1" points="414.62,-523.95 419.46,-527.55 417.67,-524.62 419.63,-525.05 419.63,-525.05 419.63,-525.05 417.67,-524.62 420.52,-522.71 414.62,-523.95" class="a-edge s-edge"/>
</g>

<g id="node22" class="node">
<title>rjobs</title>
<polygon stroke-width="1.3" points="505.89,-477.11 410.97,-477.11 410.97,-452.89 505.89,-452.89 505.89,-477.11" class="f-tra s-tra"/>
<text xml:space="preserve" text-anchor="middle" x="458.43" y="-461.12" font-family="Helvetica,sans-Serif" font-size="10.00" class="t-ink">recompute_jobs</text>
</g>

<g id="edge26" class="edge">

<path fill="none" stroke-width="1.1" d="M222.27,-410.72C250.56,-421.52 293.13,-436.7 331.34,-446 355.13,-451.79 381.91,-456.13 404.64,-459.18" class="s-edge"/>
<polygon stroke-width="1.1" points="404.52,-459.16 409.65,-462.34 407.61,-459.57 409.6,-459.83 409.6,-459.83 409.6,-459.83 407.61,-459.57 410.29,-457.43 404.52,-459.16" class="a-edge s-edge"/>
</g>

<g id="node23" class="node">
<title>hcfg</title>
<polygon stroke-width="1.3" points="874.81,-610.11 775.39,-610.11 775.39,-585.89 874.81,-585.89 874.81,-610.11" class="f-road s-road"/>
<text xml:space="preserve" text-anchor="middle" x="825.1" y="-594.12" font-family="Helvetica,sans-Serif" font-size="10.00" class="t-ink">heuristic_configs</text>
</g>

<g id="edge9" class="edge">

<path fill="none" stroke-width="1.1" d="M195.1,-410.62C209.43,-445.87 255.43,-545.08 331.34,-580 477.41,-647.19 674.38,-625.48 768.94,-609.15" class="s-edge"/>
<polygon stroke-width="1.1" points="768.96,-609.14 774.81,-610.63 772.03,-608.61 774.01,-608.26 774.01,-608.26 774.01,-608.26 772.03,-608.61 773.95,-605.76 768.96,-609.14" class="a-edge s-edge"/>
</g>

<g id="node14" class="node">
<title>submissions</title>
<polygon stroke-width="1.9" points="899.93,-391.73 750.26,-391.73 750.26,-356.27 899.93,-356.27 899.93,-391.73" class="f-ana s-ana"/>
<text xml:space="preserve" text-anchor="middle" x="825.1" y="-375.75" font-family="Helvetica,sans-Serif" font-size="10.00" class="t-ink">submissions</text>
<text xml:space="preserve" text-anchor="middle" x="825.1" y="-364.5" font-family="Helvetica,sans-Serif" font-size="10.00" class="t-ink">blob_sha256 · version_index</text>
</g>

<g id="edge11" class="edge">

<path fill="none" stroke-width="1.1" d="M499.49,-395.36C558.01,-391.51 668.09,-384.27 743.7,-379.29" class="s-edge"/>
<polygon stroke-width="1.1" points="743.68,-379.29 749.33,-381.4 746.79,-379.09 748.8,-378.96 748.8,-378.96 748.8,-378.96 746.79,-379.09 749.01,-376.46 743.68,-379.29" class="a-edge s-edge"/>
</g>

<g id="edge14" class="edge">

<path fill="none" stroke-width="1.1" stroke-dasharray="5,2" d="M458.43,-318.68C458.43,-285.71 458.43,-195.01 458.43,-150.83" class="s-edge"/>
<polygon stroke-width="1.1" points="458.43,-150.79 460.9,-145.29 458.43,-147.67 458.43,-145.65 458.43,-145.65 458.43,-145.65 458.43,-147.67 455.95,-145.29 458.43,-150.79" class="a-edge s-edge"/>
<text xml:space="preserve" text-anchor="middle" x="446.43" y="-233.09" font-family="Helvetica,sans-Serif" font-size="8.00" class="t-hum">soft link</text>
<text xml:space="preserve" text-anchor="middle" x="446.43" y="-224.09" font-family="Helvetica,sans-Serif" font-size="8.00" class="t-hum">SET NULL</text>
</g>

<g id="edge12" class="edge">

<path fill="none" stroke-width="1.1" d="M501.61,-335.97C560.63,-342.93 668.99,-355.71 743.7,-364.52" class="s-edge"/>
<polygon stroke-width="1.1" points="743.64,-364.51 748.81,-367.61 746.73,-364.88 748.73,-365.11 748.73,-365.11 748.73,-365.11 746.73,-364.88 749.39,-362.7 743.64,-364.51" class="a-edge s-edge"/>
<text xml:space="preserve" text-anchor="middle" x="654.89" y="-359.02" font-family="Helvetica,sans-Serif" font-size="8.00" class="t-hum">matched to</text>
</g>

<g id="node10" class="node">
<title>students</title>
<polygon stroke-width="1.9" points="577.51,-64.1 339.34,-64.1 339.34,-15.9 577.51,-15.9 577.51,-64.1" class="f-fmt s-fmt"/>
<text xml:space="preserve" text-anchor="middle" x="458.43" y="-48.12" font-family="Helvetica,sans-Serif" font-size="10.00" class="t-ink">students — 2.1</text>
<text xml:space="preserve" text-anchor="middle" x="458.43" y="-36.88" font-family="Helvetica,sans-Serif" font-size="10.00" class="t-ink">global student_ref ← (institution_id, sso_subject)</text>
<text xml:space="preserve" text-anchor="middle" x="458.43" y="-24.12" font-family="Helvetica,sans-Serif" font-size="10.00" class="t-ink">NO semester, NO course</text>
</g>

<g id="edge17" class="edge">

<path fill="none" stroke-width="1.1" stroke-dasharray="5,2" d="M362.72,-65.05C351.33,-70.7 340.51,-77.6 331.34,-86 302.09,-112.81 302.34,-128.25 293.79,-167 283.12,-215.4 296.78,-236.48 331.34,-272 352.72,-293.97 383.85,-308.61 409.95,-317.81" class="s-fmt"/>
<polygon stroke-width="1.1" points="409.89,-317.79 414.29,-321.91 412.84,-318.8 414.74,-319.45 414.74,-319.45 414.74,-319.45 412.84,-318.8 415.89,-317.23 409.89,-317.79" class="a-fmt s-fmt"/>
<text xml:space="preserve" text-anchor="middle" x="282.22" y="-177.4" font-family="Helvetica,sans-Serif" font-size="8.00" class="t-hum">soft link</text>
<text xml:space="preserve" text-anchor="middle" x="282.22" y="-168.4" font-family="Helvetica,sans-Serif" font-size="8.00" class="t-hum">SET NULL</text>
</g>

<g id="node11" class="node">
<title>scred</title>
<polygon stroke-width="1.3" points="913.06,-64.73 737.14,-64.73 737.14,-29.27 913.06,-29.27 913.06,-64.73" class="f-fmt s-fmt"/>
<text xml:space="preserve" text-anchor="middle" x="825.1" y="-48.75" font-family="Helvetica,sans-Serif" font-size="10.00" class="t-ink">student_credentials — 2.1</text>
<text xml:space="preserve" text-anchor="middle" x="825.1" y="-37.5" font-family="Helvetica,sans-Serif" font-size="10.00" class="t-ink">append&#45;only, one row per issuance</text>
</g>

<g id="edge16" class="edge">

<path fill="none" stroke-width="1.1" d="M578.33,-42.28C627.76,-43.23 684.3,-44.32 730.67,-45.21" class="s-fmt"/>
<polygon stroke-width="1.1" points="730.7,-45.21 736.15,-47.79 733.82,-45.27 735.83,-45.31 735.83,-45.31 735.83,-45.31 733.82,-45.27 736.25,-42.84 730.7,-45.21" class="a-fmt s-fmt"/>
<text xml:space="preserve" text-anchor="middle" x="654.89" y="-54.73" font-family="Helvetica,sans-Serif" font-size="8.00" class="t-hum">one row per</text>
<text xml:space="preserve" text-anchor="middle" x="654.89" y="-45.73" font-family="Helvetica,sans-Serif" font-size="8.00" class="t-hum">issuance · RESTRICT</text>
</g>

<g id="node13" class="node">
<title>senr</title>
<polygon stroke-width="1.3" points="917.93,-142.73 732.26,-142.73 732.26,-107.27 917.93,-107.27 917.93,-142.73" class="f-hum s-hum"/>
<text xml:space="preserve" text-anchor="middle" x="825.1" y="-126.75" font-family="Helvetica,sans-Serif" font-size="10.00" class="t-ink2">student_enrollments — 2.0, archived</text>
<text xml:space="preserve" text-anchor="middle" x="825.1" y="-115.5" font-family="Helvetica,sans-Serif" font-size="10.00" class="t-ink2">PUBLIC keys only</text>
</g>

<g id="edge15" class="edge">

<path fill="none" stroke-width="1.1" d="M538.1,-125.78C593.17,-125.63 667.14,-125.43 726.05,-125.27" class="s-edge"/>
<polygon stroke-width="1.1" points="725.83,-125.27 731.34,-127.73 728.95,-125.26 730.96,-125.26 730.96,-125.26 730.96,-125.26 728.95,-125.26 731.32,-122.78 725.83,-125.27" class="a-edge s-edge"/>
</g>

<g id="node15" class="node">
<title>stats</title>
<polygon stroke-width="1.3" points="1181.1,-277.11 1096.68,-277.11 1096.68,-252.9 1181.1,-252.9 1181.1,-277.11" class="f-ana s-ana"/>
<text xml:space="preserve" text-anchor="middle" x="1138.89" y="-261.12" font-family="Helvetica,sans-Serif" font-size="10.00" class="t-ink">per_file_stats</text>
</g>

<g id="edge18" class="edge">

<path fill="none" stroke-width="1.1" d="M875.95,-355.39C918.36,-339.7 980.95,-316.85 1035.93,-298 1054.27,-291.71 1074.58,-285.07 1092.21,-279.41" class="s-edge"/>
<polygon stroke-width="1.1" points="1092,-279.48 1097.99,-280.16 1094.97,-278.53 1096.89,-277.91 1096.89,-277.91 1096.89,-277.91 1094.97,-278.53 1096.48,-275.45 1092,-279.48" class="a-edge s-edge"/>
</g>

<g id="node16" class="node">
<title>valres</title>
<polygon stroke-width="1.3" points="1189.73,-344.11 1088.06,-344.11 1088.06,-319.89 1189.73,-319.89 1189.73,-344.11" class="f-ana s-ana"/>
<text xml:space="preserve" text-anchor="middle" x="1138.89" y="-328.12" font-family="Helvetica,sans-Serif" font-size="10.00" class="t-ink">validation_results</text>
</g>

<g id="edge19" class="edge">

<path fill="none" stroke-width="1.1" d="M900.78,-363.94C956.46,-356.44 1031.33,-346.35 1081.92,-339.54" class="s-edge"/>
<polygon stroke-width="1.1" points="1081.85,-339.55 1087.63,-341.27 1084.94,-339.13 1086.93,-338.86 1086.93,-338.86 1086.93,-338.86 1084.94,-339.13 1086.97,-336.36 1081.85,-339.55" class="a-edge s-edge"/>
<text xml:space="preserve" text-anchor="middle" x="976.93" y="-356.91" font-family="Helvetica,sans-Serif" font-size="8.00" class="t-hum">1:1</text>
</g>

<g id="node17" class="node">
<title>flags</title>
<polygon stroke-width="1.3" points="1165.89,-411.11 1111.89,-411.11 1111.89,-386.89 1165.89,-386.89 1165.89,-411.11" class="f-ana s-ana"/>
<text xml:space="preserve" text-anchor="middle" x="1138.89" y="-395.12" font-family="Helvetica,sans-Serif" font-size="10.00" class="t-ink">flags</text>
</g>

<g id="edge20" class="edge">

<path fill="none" stroke-width="1.1" d="M900.78,-379.99C965.91,-385.21 1057.29,-392.54 1105.37,-396.39" class="s-edge"/>
<polygon stroke-width="1.1" points="1105.45,-396.4 1110.73,-399.31 1108.55,-396.65 1110.56,-396.81 1110.56,-396.81 1110.56,-396.81 1108.55,-396.65 1111.13,-394.37 1105.45,-396.4" class="a-edge s-edge"/>
</g>

<g id="node19" class="node">
<title>xparts</title>
<polygon stroke-width="1.3" points="1202.1,-210.1 1075.68,-210.1 1075.68,-185.9 1202.1,-185.9 1202.1,-210.1" class="f-uix s-uix"/>
<text xml:space="preserve" text-anchor="middle" x="1138.89" y="-194.12" font-family="Helvetica,sans-Serif" font-size="10.00" class="t-ink">cross_flag_participants</text>
</g>

<g id="edge21" class="edge">

<path fill="none" stroke-width="1.1" d="M849.82,-355.55C887.55,-326.85 964.32,-271.07 1035.93,-235 1053.31,-226.25 1073.26,-218.53 1090.89,-212.45" class="s-edge"/>
<polygon stroke-width="1.1" points="1090.72,-212.5 1096.73,-213.07 1093.67,-211.5 1095.58,-210.85 1095.58,-210.85 1095.58,-210.85 1093.67,-211.5 1095.13,-208.39 1090.72,-212.5" class="a-edge s-edge"/>
</g>

<g id="node26" class="node">
<title>blobstore</title>
<path stroke-width="1.9" d="M1241.85,-506.74C1241.85,-509.65 1195.7,-512.02 1138.89,-512.02 1082.08,-512.02 1035.93,-509.65 1035.93,-506.74 1035.93,-506.74 1035.93,-459.26 1035.93,-459.26 1035.93,-456.35 1082.08,-453.98 1138.89,-453.98 1195.7,-453.98 1241.85,-456.35 1241.85,-459.26 1241.85,-459.26 1241.85,-506.74 1241.85,-506.74" class="f-rec s-rec"/>
<path fill="none" stroke-width="1.9" d="M1241.85,-506.74C1241.85,-503.83 1195.7,-501.47 1138.89,-501.47 1082.08,-501.47 1035.93,-503.83 1035.93,-506.74" class="s-rec"/>
<text xml:space="preserve" text-anchor="middle" x="1138.89" y="-488.6" font-family="Helvetica,sans-Serif" font-size="9.50" class="t-ink">Blob store</text>
<text xml:space="preserve" text-anchor="middle" x="1138.89" y="-478.85" font-family="Helvetica,sans-Serif" font-size="9.50" class="t-ink">the stored bundle — the ONLY place the</text>
<text xml:space="preserve" text-anchor="middle" x="1138.89" y="-469.1" font-family="Helvetica,sans-Serif" font-size="9.50" class="t-ink">event stream lives. No events table exists.</text>
</g>

<g id="edge28" class="edge">

<path fill="none" stroke-width="1.1" d="M879.34,-392.61C924.88,-408.54 991.47,-431.81 1045.66,-450.76" class="s-rec"/>
<polygon stroke-width="1.1" points="1044.81,-452.5 1050.64,-452.5 1046.08,-448.87 1044.81,-452.5" class="a-rec s-rec"/>
<text xml:space="preserve" text-anchor="middle" x="976.93" y="-434.67" font-family="Helvetica,sans-Serif" font-size="8.00" class="t-hum">blob_key →</text>
</g>

<g id="edge22" class="edge">

<path fill="none" stroke-width="1.1" d="M863.7,-198C914.57,-198 1006.18,-198 1069.42,-198" class="s-edge"/>
<polygon stroke-width="1.1" points="1069.2,-198 1074.7,-200.48 1072.32,-198 1074.33,-198 1074.33,-198 1074.33,-198 1072.32,-198 1074.7,-195.53 1069.2,-198" class="a-edge s-edge"/>
</g>

<g id="edge25" class="edge">

<path fill="none" stroke-width="1.1" stroke-dasharray="5,2" d="M496.74,-523.57C520.28,-517.77 551.12,-509.26 577.51,-499 654.77,-468.96 740.01,-422.56 787.31,-395.55" class="s-edge"/>
<polygon stroke-width="1.1" points="787.23,-395.59 793.23,-395 789.94,-394.04 791.68,-393.04 791.68,-393.04 791.68,-393.04 789.94,-394.04 790.77,-390.71 787.23,-395.59" class="a-edge s-edge"/>
<text xml:space="preserve" text-anchor="middle" x="654.89" y="-483.02" font-family="Helvetica,sans-Serif" font-size="8.00" class="t-hum">created by</text>
</g>

<g id="node21" class="node">
<title>ifiles</title>
<polygon stroke-width="1.3" points="862.81,-543.11 787.39,-543.11 787.39,-518.89 862.81,-518.89 862.81,-543.11" class="f-tra s-tra"/>
<text xml:space="preserve" text-anchor="middle" x="825.1" y="-527.12" font-family="Helvetica,sans-Serif" font-size="10.00" class="t-ink">ingest_files</text>
</g>

<g id="edge24" class="edge">

<path fill="none" stroke-width="1.1" d="M496.74,-531.9C564.8,-531.71 708.74,-531.32 780.92,-531.12" class="s-edge"/>
<polygon stroke-width="1.1" points="780.97,-531.12 786.47,-533.58 784.09,-531.11 786.1,-531.1 786.1,-531.1 786.1,-531.1 784.09,-531.11 786.46,-528.63 780.97,-531.12" class="a-edge s-edge"/>
</g>

<g id="node25" class="node">
<title>rate</title>
<polygon stroke-width="1.3" points="877.81,-744.11 772.39,-744.11 772.39,-719.89 877.81,-719.89 877.81,-744.11" class="f-road s-road"/>
<text xml:space="preserve" text-anchor="middle" x="825.1" y="-728.12" font-family="Helvetica,sans-Serif" font-size="10.00" class="t-ink">rate_limit_buckets</text>
</g>
</g>
</svg>