<svg width="1662pt" height="3042pt"
 viewBox="0.00 0.00 1662.00 3042.00" xmlns="http://www.w3.org/2000/svg" xmlns:xlink="http://www.w3.org/1999/xlink">
<g id="graph0" class="graph" transform="scale(1 1) rotate(0) translate(21.6 3020.61)">
<title>ingest</title>
<g id="clust1" class="cluster">

<path stroke-width="1.5" d="M209,-2905.3C209,-2905.3 761,-2905.3 761,-2905.3 767,-2905.3 773,-2911.3 773,-2917.3 773,-2917.3 773,-2979.01 773,-2979.01 773,-2985.01 767,-2991.01 761,-2991.01 761,-2991.01 209,-2991.01 209,-2991.01 203,-2991.01 197,-2985.01 197,-2979.01 197,-2979.01 197,-2917.3 197,-2917.3 197,-2911.3 203,-2905.3 209,-2905.3" class="f-tra s-tra"/>
<text xml:space="preserve" text-anchor="middle" x="226.38" y="-2977.99" font-family="Helvetica,sans-Serif" font-size="9.50" class="t-tra"> &#160;ENTRY &#160;</text>
</g>
<g id="clust2" class="cluster">

<path stroke-width="1.5" d="M20,-2007.39C20,-2007.39 671,-2007.39 671,-2007.39 677,-2007.39 683,-2013.39 683,-2019.39 683,-2019.39 683,-2850.05 683,-2850.05 683,-2856.05 677,-2862.05 671,-2862.05 671,-2862.05 20,-2862.05 20,-2862.05 14,-2862.05 8,-2856.05 8,-2850.05 8,-2850.05 8,-2019.39 8,-2019.39 8,-2013.39 14,-2007.39 20,-2007.39" class="f-srv s-srv"/>
<text xml:space="preserve" text-anchor="middle" x="61.38" y="-2849.03" font-family="Helvetica,sans-Serif" font-size="9.50" class="t-srv"> &#160;STAGE 1 · PARSE &#160;</text>
</g>
<g id="clust3" class="cluster">

<path stroke-width="1.5" d="M703,-1837.53C703,-1837.53 1025,-1837.53 1025,-1837.53 1031,-1837.53 1037,-1843.53 1037,-1849.53 1037,-1849.53 1037,-2104.24 1037,-2104.24 1037,-2110.24 1031,-2116.24 1025,-2116.24 1025,-2116.24 703,-2116.24 703,-2116.24 697,-2116.24 691,-2110.24 691,-2104.24 691,-2104.24 691,-1849.53 691,-1849.53 691,-1843.53 697,-1837.53 703,-1837.53" class="f-srv s-srv"/>
<text xml:space="preserve" text-anchor="middle" x="776.25" y="-2103.22" font-family="Helvetica,sans-Serif" font-size="9.50" class="t-srv"> &#160;DEDUP — before any heavy work &#160;</text>
</g>
<g id="clust4" class="cluster">

<path stroke-width="1.5" d="M1057,-1568.52C1057,-1568.52 1235,-1568.52 1235,-1568.52 1241,-1568.52 1247,-1574.52 1247,-1580.52 1247,-1580.52 1247,-1897.5 1247,-1897.5 1247,-1903.5 1241,-1909.5 1235,-1909.5 1235,-1909.5 1057,-1909.5 1057,-1909.5 1051,-1909.5 1045,-1903.5 1045,-1897.5 1045,-1897.5 1045,-1580.52 1045,-1580.52 1045,-1574.52 1051,-1568.52 1057,-1568.52" class="f-srv s-srv"/>
<text xml:space="preserve" text-anchor="middle" x="1099.5" y="-1896.48" font-family="Helvetica,sans-Serif" font-size="9.50" class="t-srv"> &#160;STAGE 2 · MATCH &#160;</text>
</g>
<g id="clust5" class="cluster">

<path stroke-width="1.5" d="M1267,-1309.1C1267,-1309.1 1599,-1309.1 1599,-1309.1 1605,-1309.1 1611,-1315.1 1611,-1321.1 1611,-1321.1 1611,-1623.62 1611,-1623.62 1611,-1629.62 1605,-1635.62 1599,-1635.62 1599,-1635.62 1267,-1635.62 1267,-1635.62 1261,-1635.62 1255,-1629.62 1255,-1623.62 1255,-1623.62 1255,-1321.1 1255,-1321.1 1255,-1315.1 1261,-1309.1 1267,-1309.1" class="f-ana s-ana"/>
<text xml:space="preserve" text-anchor="middle" x="1432.88" y="-1622.59" font-family="Helvetica,sans-Serif" font-size="9.50" class="t-ana"> &#160;STAGE 3 · ANALYSE — against the in&#45;memory bundle, which still has source &#160;</text>
</g>
<g id="clust6" class="cluster">

<path stroke-width="1.5" d="M1169,-342.63C1169,-342.63 1562,-342.63 1562,-342.63 1568,-342.63 1574,-348.63 1574,-354.63 1574,-354.63 1574,-1245.85 1574,-1245.85 1574,-1251.85 1568,-1257.85 1562,-1257.85 1562,-1257.85 1169,-1257.85 1169,-1257.85 1163,-1257.85 1157,-1251.85 1157,-1245.85 1157,-1245.85 1157,-354.63 1157,-354.63 1157,-348.63 1163,-342.63 1169,-342.63" class="f-srv s-srv"/>
<text xml:space="preserve" text-anchor="middle" x="1246.38" y="-1244.83" font-family="Helvetica,sans-Serif" font-size="9.50" class="t-srv"> &#160;PER&#45;SUBMISSION TRANSACTION &#160;</text>
</g>
<g id="clust7" class="cluster">

<path stroke-width="1.5" d="M1222,-115.71C1222,-115.71 1390,-115.71 1390,-115.71 1396,-115.71 1402,-121.71 1402,-127.71 1402,-127.71 1402,-279.38 1402,-279.38 1402,-285.38 1396,-291.38 1390,-291.38 1390,-291.38 1222,-291.38 1222,-291.38 1216,-291.38 1210,-285.38 1210,-279.38 1210,-279.38 1210,-127.71 1210,-127.71 1210,-121.71 1216,-115.71 1222,-115.71" class="f-ana s-ana"/>
<text xml:space="preserve" text-anchor="middle" x="1264.5" y="-278.36" font-family="Helvetica,sans-Serif" font-size="9.50" class="t-ana"> &#160;STAGE 4 · CROSS &#160;</text>
</g>

<g id="node1" class="node">
<title>e_http</title>
<path stroke-width="1.3" d="M376.71,-2965.26C376.71,-2965.26 217.29,-2965.26 217.29,-2965.26 211.29,-2965.26 205.29,-2959.26 205.29,-2953.26 205.29,-2953.26 205.29,-2925.3 205.29,-2925.3 205.29,-2919.3 211.29,-2913.3 217.29,-2913.3 217.29,-2913.3 376.71,-2913.3 376.71,-2913.3 382.71,-2913.3 388.71,-2919.3 388.71,-2925.3 388.71,-2925.3 388.71,-2953.26 388.71,-2953.26 388.71,-2959.26 382.71,-2965.26 376.71,-2965.26" class="f-tra s-tra"/>
<text xml:space="preserve" text-anchor="middle" x="297" y="-2949.76" font-family="Helvetica,sans-Serif" font-size="9.50" class="t-ink">HTTP upload</text>
<text xml:space="preserve" text-anchor="middle" x="297" y="-2940.01" font-family="Helvetica,sans-Serif" font-size="9.50" class="t-ink">streamed to disk, never buffered;</text>
<text xml:space="preserve" text-anchor="middle" x="297" y="-2930.26" font-family="Helvetica,sans-Serif" font-size="9.50" class="t-ink">chunked + resumable when ≥ 16 MiB</text>
<text xml:space="preserve" text-anchor="middle" x="297" y="-2920.51" font-family="Helvetica,sans-Serif" font-size="9.50" class="t-ink">(nginx caps a body at ~20 MiB)</text>
</g>

<g id="node4" class="node">
<title>meta</title>
<path stroke-width="1.3" d="M610.18,-2836.3C610.18,-2836.3 467.82,-2836.3 467.82,-2836.3 463.74,-2836.3 459.67,-2832.22 459.67,-2828.14 459.67,-2828.14 459.67,-2819.98 459.67,-2819.98 459.67,-2815.9 463.74,-2811.82 467.82,-2811.82 467.82,-2811.82 610.18,-2811.82 610.18,-2811.82 614.26,-2811.82 618.34,-2815.9 618.34,-2819.98 618.34,-2819.98 618.34,-2828.14 618.34,-2828.14 618.34,-2832.22 614.26,-2836.3 610.18,-2836.3" class="f-srv s-srv"/>
<text xml:space="preserve" text-anchor="middle" x="539" y="-2819.91" font-family="Helvetica,sans-Serif" font-size="9.50" class="t-ink">read submission_metadata.yml</text>
</g>

<g id="edge1" class="edge">

<path fill="none" stroke-width="1.15" d="M351.61,-2912.73C399.58,-2890.29 467.71,-2858.41 507.24,-2839.92" class="s-edge"/>
<polygon stroke-width="1.15" points="507.68,-2842.03 512.22,-2837.59 505.9,-2838.23 507.68,-2842.03" class="a-edge s-edge"/>
</g>

<g id="node2" class="node">
<title>e_cli</title>
<path stroke-width="1.3" d="M634.09,-2960.39C634.09,-2960.39 443.92,-2960.39 443.92,-2960.39 437.92,-2960.39 431.92,-2954.39 431.92,-2948.39 431.92,-2948.39 431.92,-2930.18 431.92,-2930.18 431.92,-2924.18 437.92,-2918.18 443.92,-2918.18 443.92,-2918.18 634.09,-2918.18 634.09,-2918.18 640.09,-2918.18 646.09,-2924.18 646.09,-2930.18 646.09,-2930.18 646.09,-2948.39 646.09,-2948.39 646.09,-2954.39 640.09,-2960.39 634.09,-2960.39" class="f-tra s-tra"/>
<text xml:space="preserve" text-anchor="middle" x="539" y="-2944.88" font-family="Helvetica,sans-Serif" font-size="9.50" class="t-ink">ingest:local</text>
<text xml:space="preserve" text-anchor="middle" x="539" y="-2935.13" font-family="Helvetica,sans-Serif" font-size="9.50" class="t-ink">streaming read from the server&#39;s</text>
<text xml:space="preserve" text-anchor="middle" x="539" y="-2925.38" font-family="Helvetica,sans-Serif" font-size="9.50" class="t-ink">own disk — memory bounded to one bundle</text>
</g>

<g id="edge2" class="edge">

<path fill="none" stroke-width="1.15" d="M539,-2917.78C539,-2896.94 539,-2864.91 539,-2844.47" class="s-edge"/>
<polygon stroke-width="1.15" points="541.1,-2844.49 539,-2838.49 536.9,-2844.49 541.1,-2844.49" class="a-edge s-edge"/>
</g>

<g id="node3" class="node">
<title>e_gate</title>
<path stroke-width="1.3" d="M753.89,-2955.51C753.89,-2955.51 700.11,-2955.51 700.11,-2955.51 694.7,-2955.51 689.29,-2950.1 689.29,-2944.69 689.29,-2944.69 689.29,-2933.87 689.29,-2933.87 689.29,-2928.46 694.7,-2923.05 700.11,-2923.05 700.11,-2923.05 753.89,-2923.05 753.89,-2923.05 759.3,-2923.05 764.71,-2928.46 764.71,-2933.87 764.71,-2933.87 764.71,-2944.69 764.71,-2944.69 764.71,-2950.1 759.3,-2955.51 753.89,-2955.51" class="f-tra s-tra"/>
<text xml:space="preserve" text-anchor="middle" x="727" y="-2940.01" font-family="Helvetica,sans-Serif" font-size="9.50" class="t-ink">provgate</text>
<text xml:space="preserve" text-anchor="middle" x="727" y="-2930.26" font-family="Helvetica,sans-Serif" font-size="9.50" class="t-ink">hourly delta</text>
</g>

<g id="edge3" class="edge">

<path fill="none" stroke-width="1.15" d="M700.86,-2922.54C664.96,-2900.92 600.77,-2862.26 564.96,-2840.7" class="s-edge"/>
<polygon stroke-width="1.15" points="566.33,-2839.07 560.11,-2837.77 564.17,-2842.67 566.33,-2839.07" class="a-edge s-edge"/>
</g>

<g id="node5" class="node">
<title>hasmeta</title>
<path stroke-width="1.3" d="M527.63,-2731C527.63,-2731 459.32,-2708.04 459.32,-2708.04 453.63,-2706.13 453.63,-2702.31 459.32,-2700.4 459.32,-2700.4 527.63,-2677.44 527.63,-2677.44 533.31,-2675.53 544.69,-2675.53 550.37,-2677.44 550.37,-2677.44 618.68,-2700.4 618.68,-2700.4 624.37,-2702.31 624.37,-2706.13 618.68,-2708.04 618.68,-2708.04 550.37,-2731 550.37,-2731 544.69,-2732.91 533.31,-2732.91 527.63,-2731" class="f-panel s-srv"/>
<text xml:space="preserve" text-anchor="middle" x="539" y="-2705.42" font-family="Helvetica,sans-Serif" font-size="9.00" class="t-ink">is this actually a</text>
<text xml:space="preserve" text-anchor="middle" x="539" y="-2695.67" font-family="Helvetica,sans-Serif" font-size="9.00" class="t-ink">Gradescope export?</text>
</g>

<g id="edge4" class="edge">

<path fill="none" stroke-width="1.15" d="M539,-2811.33C539,-2795.47 539,-2766.43 539,-2742.74" class="s-edge"/>
<polygon stroke-width="1.15" points="541.1,-2743 539,-2737 536.9,-2743 541.1,-2743" class="a-edge s-edge"/>
</g>

<g id="node6" class="node">
<title>scope</title>
<path stroke-width="1.3" d="M529.84,-2588.62C529.84,-2588.62 278.16,-2588.62 278.16,-2588.62 272.16,-2588.62 266.16,-2582.62 266.16,-2576.62 266.16,-2576.62 266.16,-2499.91 266.16,-2499.91 266.16,-2493.91 272.16,-2487.91 278.16,-2487.91 278.16,-2487.91 529.84,-2487.91 529.84,-2487.91 535.84,-2487.91 541.84,-2493.91 541.84,-2499.91 541.84,-2499.91 541.84,-2576.62 541.84,-2576.62 541.84,-2582.62 535.84,-2588.62 529.84,-2588.62" class="f-tra s-tra"/>
<text xml:space="preserve" text-anchor="middle" x="404" y="-2573.59" font-family="Helvetica,sans-Serif" font-size="9.00" class="t-ink">declared submission type — one per BATCH</text>
<text xml:space="preserve" text-anchor="middle" x="404" y="-2563.84" font-family="Helvetica,sans-Serif" font-size="9.00" class="t-ink">self_identifying · bundle_zip · repo_whole · repo_scoped.</text>
<text xml:space="preserve" text-anchor="middle" x="404" y="-2554.09" font-family="Helvetica,sans-Serif" font-size="9.00" class="t-ink">The assignment&#39;s persisted default, or a per&#45;request</text>
<text xml:space="preserve" text-anchor="middle" x="404" y="-2544.34" font-family="Helvetica,sans-Serif" font-size="9.00" class="t-ink">override on ANY of the three upload routes.</text>
<text xml:space="preserve" text-anchor="middle" x="404" y="-2534.59" font-family="Helvetica,sans-Serif" font-size="9.00" class="t-ink">An archive is REPO&#45;SHAPED iff a non&#45;junk entry sits under</text>
<text xml:space="preserve" text-anchor="middle" x="404" y="-2524.84" font-family="Helvetica,sans-Serif" font-size="9.00" class="t-ink">a .provenance/ directory — decided from entry NAMES alone,</text>
<text xml:space="preserve" text-anchor="middle" x="404" y="-2515.09" font-family="Helvetica,sans-Serif" font-size="9.00" class="t-ink">which a flat sealed bundle can never satisfy, so its staged</text>
<text xml:space="preserve" text-anchor="middle" x="404" y="-2505.34" font-family="Helvetica,sans-Serif" font-size="9.00" class="t-ink">bytes (and therefore its dedup key) are unchanged</text>
<text xml:space="preserve" text-anchor="middle" x="404" y="-2495.59" font-family="Helvetica,sans-Serif" font-size="9.00" class="t-ink">by construction.</text>
</g>

<g id="edge6" class="edge">

<path fill="none" stroke-width="1.15" d="M519.66,-2679.73C501.48,-2657.65 473.57,-2623.75 449.72,-2594.79" class="s-srv"/>
<polygon stroke-width="1.15" points="451.55,-2593.71 446.12,-2590.42 448.31,-2596.38 451.55,-2593.71" class="a-srv s-srv"/>
<text xml:space="preserve" text-anchor="middle" x="485.58" y="-2627.83" font-family="Helvetica,sans-Serif" font-size="8.20" class="t-hum">yes</text>
</g>

<g id="node10" class="node">
<title>pfail</title>
<path stroke-width="1.3" d="M626.59,-2057.6C626.59,-2057.6 499.42,-2057.6 499.42,-2057.6 493.42,-2057.6 487.42,-2051.6 487.42,-2045.6 487.42,-2045.6 487.42,-2027.39 487.42,-2027.39 487.42,-2021.39 493.42,-2015.39 499.42,-2015.39 499.42,-2015.39 626.59,-2015.39 626.59,-2015.39 632.59,-2015.39 638.59,-2021.39 638.59,-2027.39 638.59,-2027.39 638.59,-2045.6 638.59,-2045.6 638.59,-2051.6 632.59,-2057.6 626.59,-2057.6" class="f-bad s-bad"/>
<text xml:space="preserve" text-anchor="middle" x="563" y="-2042.57" font-family="Helvetica,sans-Serif" font-size="9.00" class="t-ink">invalid_manifest / unparseable</text>
<text xml:space="preserve" text-anchor="middle" x="563" y="-2032.82" font-family="Helvetica,sans-Serif" font-size="9.00" class="t-ink">recorded on the job, not fatal</text>
<text xml:space="preserve" text-anchor="middle" x="563" y="-2023.07" font-family="Helvetica,sans-Serif" font-size="9.00" class="t-ink">to the rest of the export</text>
</g>

<g id="edge5" class="edge">

<path fill="none" stroke-width="1.15" stroke-dasharray="5,2" d="M558.23,-2679.58C581.04,-2649.1 616,-2593.51 616,-2539.27 616,-2539.27 616,-2539.27 616,-2190.72 616,-2144.59 594.29,-2094.74 578.65,-2064.82" class="s-bad"/>
<polygon stroke-width="1.15" points="580.52,-2063.87 575.85,-2059.56 576.82,-2065.84 580.52,-2063.87" class="a-bad s-bad"/>
<text xml:space="preserve" text-anchor="middle" x="645.62" y="-2327.14" font-family="Helvetica,sans-Serif" font-size="8.20" class="t-hum">no — clear error</text>
</g>

<g id="node7" class="node">
<title>fanout</title>
<polygon stroke-width="1.3" points="223.17,-2341.73 15.53,-2341.73 15.53,-2319.13 223.17,-2319.13 234.47,-2330.43 223.17,-2341.73" class="f-srv s-srv"/>
<text xml:space="preserve" text-anchor="middle" x="125" y="-2331.16" font-family="Helvetica,sans-Serif" font-size="9.50" class="t-ink">fan out — one job per scope × submitter</text>
<text xml:space="preserve" text-anchor="middle" x="125" y="-2321.41" font-family="Helvetica,sans-Serif" font-size="9.50" class="t-ink">pg&#45;boss, bounded concurrency, cancellable</text>
</g>

<g id="edge7" class="edge">

<path fill="none" stroke-width="1.15" d="M312.02,-2487.27C292.79,-2475.72 272.98,-2462.96 255.25,-2449.91 214.05,-2419.58 171.06,-2378.28 146.22,-2353.31" class="s-tra"/>
<polygon stroke-width="1.15" points="147.84,-2351.96 142.13,-2349.17 144.86,-2354.91 147.84,-2351.96" class="a-tra s-tra"/>
<text xml:space="preserve" text-anchor="middle" x="324.62" y="-2437.62" font-family="Helvetica,sans-Serif" font-size="8.20" class="t-hum">a scope is SEALED by either shape —</text>
<text xml:space="preserve" text-anchor="middle" x="324.62" y="-2428.62" font-family="Helvetica,sans-Serif" font-size="8.20" class="t-hum">manifest.json, or the per&#45;session rolling</text>
<text xml:space="preserve" text-anchor="middle" x="324.62" y="-2419.62" font-family="Helvetica,sans-Serif" font-size="8.20" class="t-hum">manifest a git submission&#39;s only seal</text>
</g>

<g id="node8" class="node">
<title>skiplist</title>
<path stroke-width="1.3" d="M518.21,-2375.91C518.21,-2375.91 289.79,-2375.91 289.79,-2375.91 283.79,-2375.91 277.79,-2369.91 277.79,-2363.91 277.79,-2363.91 277.79,-2296.95 277.79,-2296.95 277.79,-2290.95 283.79,-2284.95 289.79,-2284.95 289.79,-2284.95 518.21,-2284.95 518.21,-2284.95 524.21,-2284.95 530.21,-2290.95 530.21,-2296.95 530.21,-2296.95 530.21,-2363.91 530.21,-2363.91 530.21,-2369.91 524.21,-2375.91 518.21,-2375.91" class="f-rec s-rec"/>
<text xml:space="preserve" text-anchor="middle" x="404" y="-2360.88" font-family="Helvetica,sans-Serif" font-size="9.00" class="t-ink">ingest_jobs.skipped</text>
<text xml:space="preserve" text-anchor="middle" x="404" y="-2351.13" font-family="Helvetica,sans-Serif" font-size="9.00" class="t-ink">no_seal · scope_excluded · ambiguous_scope ·</text>
<text xml:space="preserve" text-anchor="middle" x="404" y="-2341.38" font-family="Helvetica,sans-Serif" font-size="9.00" class="t-ink">submission_type_mismatch. A skipped scope has NO</text>
<text xml:space="preserve" text-anchor="middle" x="404" y="-2331.63" font-family="Helvetica,sans-Serif" font-size="9.00" class="t-ink">ingest_files row — that is what being skipped means —</text>
<text xml:space="preserve" text-anchor="middle" x="404" y="-2321.88" font-family="Helvetica,sans-Serif" font-size="9.00" class="t-ink">so the job summary, which counts rows, cannot report it.</text>
<text xml:space="preserve" text-anchor="middle" x="404" y="-2312.13" font-family="Helvetica,sans-Serif" font-size="9.00" class="t-ink">Nullable with NO default: null = resolution unfinished,</text>
<text xml:space="preserve" text-anchor="middle" x="404" y="-2302.38" font-family="Helvetica,sans-Serif" font-size="9.00" class="t-ink">[] = finished and skipped nothing. Collapsing those two</text>
<text xml:space="preserve" text-anchor="middle" x="404" y="-2292.63" font-family="Helvetica,sans-Serif" font-size="9.00" class="t-ink">is how a heterogeneous batch read as clean.</text>
</g>

<g id="edge8" class="edge">

<path fill="none" stroke-width="1.15" stroke-dasharray="5,2" d="M404,-2487.44C404,-2456.05 404,-2415.58 404,-2383.73" class="s-rec"/>
<polygon stroke-width="1.15" points="406.1,-2383.98 404,-2377.98 401.9,-2383.98 406.1,-2383.98" class="a-rec s-rec"/>
<text xml:space="preserve" text-anchor="middle" x="486.12" y="-2442.12" font-family="Helvetica,sans-Serif" font-size="8.20" class="t-hum">a scope the declaration refuses.</text>
<text xml:space="preserve" text-anchor="middle" x="486.12" y="-2433.12" font-family="Helvetica,sans-Serif" font-size="8.20" class="t-hum">Per SUBMISSION, never per batch: staging is</text>
<text xml:space="preserve" text-anchor="middle" x="486.12" y="-2424.12" font-family="Helvetica,sans-Serif" font-size="8.20" class="t-hum">incremental with no transaction spanning it,</text>
<text xml:space="preserve" text-anchor="middle" x="486.12" y="-2415.12" font-family="Helvetica,sans-Serif" font-size="8.20" class="t-hum">so aborting would strand a half&#45;ingested one</text>
</g>

<g id="node9" class="node">
<title>pbun</title>
<path stroke-width="1.3" d="M561.01,-2207.95C561.01,-2207.95 462.99,-2207.95 462.99,-2207.95 457.58,-2207.95 452.17,-2202.54 452.17,-2197.13 452.17,-2197.13 452.17,-2186.31 452.17,-2186.31 452.17,-2180.9 457.58,-2175.49 462.99,-2175.49 462.99,-2175.49 561.01,-2175.49 561.01,-2175.49 566.43,-2175.49 571.84,-2180.9 571.84,-2186.31 571.84,-2186.31 571.84,-2197.13 571.84,-2197.13 571.84,-2202.54 566.43,-2207.95 561.01,-2207.95" class="f-srv s-srv"/>
<text xml:space="preserve" text-anchor="middle" x="512" y="-2192.45" font-family="Helvetica,sans-Serif" font-size="9.50" class="t-ink">parse bundle</text>
<text xml:space="preserve" text-anchor="middle" x="512" y="-2182.7" font-family="Helvetica,sans-Serif" font-size="9.50" class="t-ink">manifest + every .slog</text>
</g>

<g id="edge9" class="edge">

<path fill="none" stroke-width="1.15" d="M171.68,-2312.94C244.42,-2287.24 384.31,-2237.83 460.12,-2211.05" class="s-edge"/>
<polygon stroke-width="1.15" points="460.65,-2213.09 465.61,-2209.11 459.25,-2209.13 460.65,-2213.09" class="a-edge s-edge"/>
</g>

<g id="edge10" class="edge">

<path fill="none" stroke-width="1.15" stroke-dasharray="5,2" d="M517.27,-2174.9C525.87,-2149.06 543.03,-2097.48 553.72,-2065.38" class="s-bad"/>
<polygon stroke-width="1.15" points="555.7,-2066.07 555.6,-2059.72 551.72,-2064.75 555.7,-2066.07" class="a-bad s-bad"/>
<text xml:space="preserve" text-anchor="middle" x="550.56" y="-2129.7" font-family="Helvetica,sans-Serif" font-size="8.20" class="t-hum">malformed</text>
</g>

<g id="node11" class="node">
<title>dd</title>
<path stroke-width="1.3" d="M852.6,-2086.76C852.6,-2086.76 710.52,-2040.22 710.52,-2040.22 704.82,-2038.36 704.82,-2034.62 710.52,-2032.76 710.52,-2032.76 852.6,-1986.22 852.6,-1986.22 858.3,-1984.36 869.7,-1984.36 875.4,-1986.22 875.4,-1986.22 1017.48,-2032.76 1017.48,-2032.76 1023.18,-2034.62 1023.18,-2038.36 1017.48,-2040.22 1017.48,-2040.22 875.4,-2086.76 875.4,-2086.76 869.7,-2088.62 858.3,-2088.62 852.6,-2086.76" class="f-panel s-srv"/>
<text xml:space="preserve" text-anchor="middle" x="864" y="-2047.44" font-family="Helvetica,sans-Serif" font-size="9.00" class="t-ink">already present?</text>
<text xml:space="preserve" text-anchor="middle" x="864" y="-2037.69" font-family="Helvetica,sans-Serif" font-size="9.00" class="t-ink">The DECLARED GROUP is asked FIRST —</text>
<text xml:space="preserve" text-anchor="middle" x="864" y="-2027.94" font-family="Helvetica,sans-Serif" font-size="9.00" class="t-ink">(semester_id, source_group_key), 0033 —</text>
<text xml:space="preserve" text-anchor="middle" x="864" y="-2018.19" font-family="Helvetica,sans-Serif" font-size="9.00" class="t-ink">and only then (semester_id, blob_sha256).</text>
</g>

<g id="edge11" class="edge">

<path fill="none" stroke-width="1.15" d="M551.74,-2174.91C588.55,-2160.15 644.72,-2137.28 693,-2116.24 725.03,-2102.28 760.14,-2086.24 790.16,-2072.3" class="s-srv"/>
<polygon stroke-width="1.15" points="790.75,-2074.35 795.3,-2069.91 788.97,-2070.54 790.75,-2074.35" class="a-srv s-srv"/>
<text xml:space="preserve" text-anchor="middle" x="675.95" y="-2129.7" font-family="Helvetica,sans-Serif" font-size="8.20" class="t-hum">parsed</text>
</g>

<g id="node12" class="node">
<title>ddskip</title>
<path stroke-width="1.3" stroke-dasharray="5,2" d="M951.59,-1897.49C951.59,-1897.49 776.41,-1897.49 776.41,-1897.49 770.41,-1897.49 764.41,-1891.49 764.41,-1885.49 764.41,-1885.49 764.41,-1857.53 764.41,-1857.53 764.41,-1851.53 770.41,-1845.53 776.41,-1845.53 776.41,-1845.53 951.59,-1845.53 951.59,-1845.53 957.59,-1845.53 963.59,-1851.53 963.59,-1857.53 963.59,-1857.53 963.59,-1885.49 963.59,-1885.49 963.59,-1891.49 957.59,-1897.49 951.59,-1897.49" class="f-hum s-hum"/>
<text xml:space="preserve" text-anchor="middle" x="864" y="-1882.46" font-family="Helvetica,sans-Serif" font-size="9.00" class="t-ink2">skip</text>
<text xml:space="preserve" text-anchor="middle" x="864" y="-1872.71" font-family="Helvetica,sans-Serif" font-size="9.00" class="t-ink2">re&#45;sending an unchanged bundle is cheap</text>
<text xml:space="preserve" text-anchor="middle" x="864" y="-1862.96" font-family="Helvetica,sans-Serif" font-size="9.00" class="t-ink2">— this is what lets provgate treat its</text>
<text xml:space="preserve" text-anchor="middle" x="864" y="-1853.21" font-family="Helvetica,sans-Serif" font-size="9.00" class="t-ink2">watermark as an optimisation</text>
</g>

<g id="edge12" class="edge">

<path fill="none" stroke-width="1.15" stroke-dasharray="5,2" d="M864,-1982.12C864,-1956.99 864,-1927.78 864,-1905.84" class="s-hum"/>
<polygon stroke-width="1.15" points="866.1,-1905.85 864,-1899.85 861.9,-1905.85 866.1,-1905.85" class="a-hum s-hum"/>
<text xml:space="preserve" text-anchor="middle" x="870" y="-1936.7" font-family="Helvetica,sans-Serif" font-size="8.20" class="t-hum">yes</text>
</g>

<g id="node13" class="node">
<title>roster</title>
<path stroke-width="1.3" d="M1222.05,-1883.75C1222.05,-1883.75 1063.95,-1883.75 1063.95,-1883.75 1059.87,-1883.75 1055.79,-1879.67 1055.79,-1875.59 1055.79,-1875.59 1055.79,-1867.43 1055.79,-1867.43 1055.79,-1863.35 1059.87,-1859.27 1063.95,-1859.27 1063.95,-1859.27 1222.05,-1859.27 1222.05,-1859.27 1226.13,-1859.27 1230.21,-1863.35 1230.21,-1867.43 1230.21,-1867.43 1230.21,-1875.59 1230.21,-1875.59 1230.21,-1879.67 1226.13,-1883.75 1222.05,-1883.75" class="f-srv s-srv"/>
<text xml:space="preserve" text-anchor="middle" x="1143" y="-1867.36" font-family="Helvetica,sans-Serif" font-size="9.50" class="t-ink">upsert roster from export metadata</text>
</g>

<g id="edge13" class="edge">

<path fill="none" stroke-width="1.15" d="M922.83,-2001.13C982.44,-1966.3 1071.99,-1913.99 1116.26,-1888.13" class="s-srv"/>
<polygon stroke-width="1.15" points="1117.09,-1890.08 1121.21,-1885.24 1114.97,-1886.45 1117.09,-1890.08" class="a-srv s-srv"/>
<text xml:space="preserve" text-anchor="middle" x="1032.99" y="-1936.7" font-family="Helvetica,sans-Serif" font-size="8.20" class="t-hum">no</text>
</g>

<g id="node14" class="node">
<title>match</title>
<path stroke-width="1.3" d="M1134.67,-1764.58C1134.67,-1764.58 1064.46,-1740.08 1064.46,-1740.08 1058.8,-1738.11 1058.8,-1734.15 1064.46,-1732.18 1064.46,-1732.18 1134.67,-1707.68 1134.67,-1707.68 1140.33,-1705.71 1151.67,-1705.71 1157.33,-1707.68 1157.33,-1707.68 1227.54,-1732.18 1227.54,-1732.18 1233.2,-1734.15 1233.2,-1738.11 1227.54,-1740.08 1227.54,-1740.08 1157.33,-1764.58 1157.33,-1764.58 1151.67,-1766.55 1140.33,-1766.55 1134.67,-1764.58" class="f-panel s-srv"/>
<text xml:space="preserve" text-anchor="middle" x="1146" y="-1737.33" font-family="Helvetica,sans-Serif" font-size="9.00" class="t-ink">does this bundle map</text>
<text xml:space="preserve" text-anchor="middle" x="1146" y="-1727.58" font-family="Helvetica,sans-Serif" font-size="9.00" class="t-ink">to a roster entry?</text>
</g>

<g id="edge14" class="edge">

<path fill="none" stroke-width="1.15" d="M1143.27,-1858.67C1143.68,-1840.43 1144.48,-1804.63 1145.11,-1776.58" class="s-edge"/>
<polygon stroke-width="1.15" points="1147.21,-1776.68 1145.25,-1770.64 1143.01,-1776.59 1147.21,-1776.68" class="a-edge s-edge"/>
</g>

<g id="node15" class="node">
<title>unm</title>
<path stroke-width="1.3" d="M1213.71,-1618.73C1213.71,-1618.73 1078.29,-1618.73 1078.29,-1618.73 1072.29,-1618.73 1066.29,-1612.73 1066.29,-1606.73 1066.29,-1606.73 1066.29,-1588.52 1066.29,-1588.52 1066.29,-1582.52 1072.29,-1576.52 1078.29,-1576.52 1078.29,-1576.52 1213.71,-1576.52 1213.71,-1576.52 1219.71,-1576.52 1225.71,-1582.52 1225.71,-1588.52 1225.71,-1588.52 1225.71,-1606.73 1225.71,-1606.73 1225.71,-1612.73 1219.71,-1618.73 1213.71,-1618.73" class="f-rec s-rec"/>
<text xml:space="preserve" text-anchor="middle" x="1146" y="-1603.7" font-family="Helvetica,sans-Serif" font-size="9.00" class="t-ink">unmatched queue</text>
<text xml:space="preserve" text-anchor="middle" x="1146" y="-1593.95" font-family="Helvetica,sans-Serif" font-size="9.00" class="t-ink">surfaced in its own triage view —</text>
<text xml:space="preserve" text-anchor="middle" x="1146" y="-1584.2" font-family="Helvetica,sans-Serif" font-size="9.00" class="t-ink">never silently dropped</text>
</g>

<g id="edge15" class="edge">

<path fill="none" stroke-width="1.15" stroke-dasharray="5,2" d="M1146,-1703.13C1146,-1679.86 1146,-1648.69 1146,-1626.46" class="s-rec"/>
<polygon stroke-width="1.15" points="1148.1,-1626.73 1146,-1620.73 1143.9,-1626.73 1148.1,-1626.73" class="a-rec s-rec"/>
<text xml:space="preserve" text-anchor="middle" x="1150.5" y="-1657.94" font-family="Helvetica,sans-Serif" font-size="8.20" class="t-hum">no</text>
</g>

<g id="node16" class="node">
<title>stats</title>
<path stroke-width="1.3" d="M1385.92,-1609.87C1385.92,-1609.87 1308.08,-1609.87 1308.08,-1609.87 1303.99,-1609.87 1299.91,-1605.79 1299.91,-1601.71 1299.91,-1601.71 1299.91,-1593.55 1299.91,-1593.55 1299.91,-1589.47 1303.99,-1585.39 1308.08,-1585.39 1308.08,-1585.39 1385.92,-1585.39 1385.92,-1585.39 1390.01,-1585.39 1394.09,-1589.47 1394.09,-1593.55 1394.09,-1593.55 1394.09,-1601.71 1394.09,-1601.71 1394.09,-1605.79 1390.01,-1609.87 1385.92,-1609.87" class="f-ana s-ana"/>
<text xml:space="preserve" text-anchor="middle" x="1347" y="-1593.48" font-family="Helvetica,sans-Serif" font-size="9.50" class="t-ink">per&#45;file statistics</text>
</g>

<g id="edge16" class="edge">

<path fill="none" stroke-width="1.15" d="M1176.97,-1714.1C1217.29,-1686.71 1286.92,-1639.43 1323.3,-1614.72" class="s-srv"/>
<polygon stroke-width="1.15" points="1324.47,-1616.47 1328.25,-1611.36 1322.11,-1612.99 1324.47,-1616.47" class="a-srv s-srv"/>
<text xml:space="preserve" text-anchor="middle" x="1264.53" y="-1657.94" font-family="Helvetica,sans-Serif" font-size="8.20" class="t-hum">yes</text>
</g>

<g id="node17" class="node">
<title>val</title>
<path stroke-width="1.3" d="M1481.34,-1499.52C1481.34,-1499.52 1274.66,-1499.52 1274.66,-1499.52 1268.66,-1499.52 1262.66,-1493.52 1262.66,-1487.52 1262.66,-1487.52 1262.66,-1438.56 1262.66,-1438.56 1262.66,-1432.56 1268.66,-1426.56 1274.66,-1426.56 1274.66,-1426.56 1481.34,-1426.56 1481.34,-1426.56 1487.34,-1426.56 1493.34,-1432.56 1493.34,-1438.56 1493.34,-1438.56 1493.34,-1487.52 1493.34,-1487.52 1493.34,-1493.52 1487.34,-1499.52 1481.34,-1499.52" class="f-ana s-ana"/>
<text xml:space="preserve" text-anchor="middle" x="1378" y="-1484.02" font-family="Helvetica,sans-Serif" font-size="9.50" class="t-ink">8 validation checks</text>
<text xml:space="preserve" text-anchor="middle" x="1378" y="-1474.27" font-family="Helvetica,sans-Serif" font-size="9.50" class="t-ink">check 2 walks the trust chain against the</text>
<text xml:space="preserve" text-anchor="middle" x="1378" y="-1464.52" font-family="Helvetica,sans-Serif" font-size="9.50" class="t-ink">configured ROOT public key — unset ⇒ skipped</text>
<text xml:space="preserve" text-anchor="middle" x="1378" y="-1453.27" font-family="Helvetica,sans-Serif" font-size="9.50" class="t-ink">check 8 needs the submitted bytes —</text>
<text xml:space="preserve" text-anchor="middle" x="1378" y="-1443.52" font-family="Helvetica,sans-Serif" font-size="9.50" class="t-ink">and records their sha256s, so a later</text>
<text xml:space="preserve" text-anchor="middle" x="1378" y="-1433.77" font-family="Helvetica,sans-Serif" font-size="9.50" class="t-ink">re&#45;run on the stripped blob agrees</text>
</g>

<g id="edge17" class="edge">

<path fill="none" stroke-width="1.15" d="M1349.75,-1584.86C1353.77,-1567.65 1361.47,-1534.73 1367.82,-1507.59" class="s-edge"/>
<polygon stroke-width="1.15" points="1369.85,-1508.12 1369.17,-1501.8 1365.76,-1507.16 1369.85,-1508.12" class="a-edge s-edge"/>
</g>

<g id="node18" class="node">
<title>heur</title>
<path stroke-width="1.3" d="M1440.52,-1349.56C1440.52,-1349.56 1315.48,-1349.56 1315.48,-1349.56 1310.08,-1349.56 1304.66,-1344.15 1304.66,-1338.74 1304.66,-1338.74 1304.66,-1327.92 1304.66,-1327.92 1304.66,-1322.51 1310.08,-1317.1 1315.48,-1317.1 1315.48,-1317.1 1440.52,-1317.1 1440.52,-1317.1 1445.92,-1317.1 1451.34,-1322.51 1451.34,-1327.92 1451.34,-1327.92 1451.34,-1338.74 1451.34,-1338.74 1451.34,-1344.15 1445.92,-1349.56 1440.52,-1349.56" class="f-ana s-ana"/>
<text xml:space="preserve" text-anchor="middle" x="1378" y="-1334.06" font-family="Helvetica,sans-Serif" font-size="9.50" class="t-ink">18 heuristics + integrity flags</text>
<text xml:space="preserve" text-anchor="middle" x="1378" y="-1324.31" font-family="Helvetica,sans-Serif" font-size="9.50" class="t-ink">lifted from failed checks</text>
</g>

<g id="edge18" class="edge">

<path fill="none" stroke-width="1.15" d="M1378,-1426.13C1378,-1404.18 1378,-1376.74 1378,-1357.61" class="s-edge"/>
<polygon stroke-width="1.15" points="1380.1,-1357.7 1378,-1351.7 1375.9,-1357.7 1380.1,-1357.7" class="a-edge s-edge"/>
</g>

<g id="node25" class="node">
<title>lock</title>
<path stroke-width="1.3" d="M1497.46,-1232.1C1497.46,-1232.1 1258.54,-1232.1 1258.54,-1232.1 1252.54,-1232.1 1246.54,-1226.1 1246.54,-1220.1 1246.54,-1220.1 1246.54,-1143.39 1246.54,-1143.39 1246.54,-1137.39 1252.54,-1131.39 1258.54,-1131.39 1258.54,-1131.39 1497.46,-1131.39 1497.46,-1131.39 1503.46,-1131.39 1509.46,-1137.39 1509.46,-1143.39 1509.46,-1143.39 1509.46,-1220.1 1509.46,-1220.1 1509.46,-1226.1 1503.46,-1232.1 1497.46,-1232.1" class="f-bad s-bad"/>
<text xml:space="preserve" text-anchor="middle" x="1378" y="-1217.07" font-family="Helvetica,sans-Serif" font-size="9.00" class="t-ink">pg_advisory_xact_lock — TWO of them</text>
<text xml:space="preserve" text-anchor="middle" x="1378" y="-1207.32" font-family="Helvetica,sans-Serif" font-size="9.00" class="t-ink">(semester_id, blob_sha256), then, for a grouped file only,</text>
<text xml:space="preserve" text-anchor="middle" x="1378" y="-1197.57" font-family="Helvetica,sans-Serif" font-size="9.00" class="t-ink">(semester_id, &#39;group:&#39; + source_group_key). Always in that</text>
<text xml:space="preserve" text-anchor="middle" x="1378" y="-1187.82" font-family="Helvetica,sans-Serif" font-size="9.00" class="t-ink">order, so two writers can never hold them crosswise and</text>
<text xml:space="preserve" text-anchor="middle" x="1378" y="-1178.07" font-family="Helvetica,sans-Serif" font-size="9.00" class="t-ink">deadlock; a file with no group key takes exactly one.</text>
<text xml:space="preserve" text-anchor="middle" x="1378" y="-1168.32" font-family="Helvetica,sans-Serif" font-size="9.00" class="t-ink">Two co&#45;submitters carry byte&#45;identical bundles, so both</text>
<text xml:space="preserve" text-anchor="middle" x="1378" y="-1158.57" font-family="Helvetica,sans-Serif" font-size="9.00" class="t-ink">cleared dedup before either committed and both created a</text>
<text xml:space="preserve" text-anchor="middle" x="1378" y="-1148.82" font-family="Helvetica,sans-Serif" font-size="9.00" class="t-ink">submission. Serial execution looked perfect; only</text>
<text xml:space="preserve" text-anchor="middle" x="1378" y="-1139.07" font-family="Helvetica,sans-Serif" font-size="9.00" class="t-ink">concurrency reinstated the fan&#45;out.</text>
</g>

<g id="edge19" class="edge">

<path fill="none" stroke-width="1.15" d="M1378,-1316.6C1378,-1298.5 1378,-1267.73 1378,-1240.25" class="s-srv"/>
<polygon stroke-width="1.15" points="1380.1,-1240.34 1378,-1234.34 1375.9,-1240.34 1380.1,-1240.34" class="a-srv s-srv"/>
<text xml:space="preserve" text-anchor="middle" x="1414.75" y="-1271.31" font-family="Helvetica,sans-Serif" font-size="8.20" class="t-hum">all computation done</text>
</g>

<g id="node19" class="node">
<title>upa</title>
<path stroke-width="1.3" d="M1479.84,-1028.39C1479.84,-1028.39 1276.16,-1028.39 1276.16,-1028.39 1270.16,-1028.39 1264.16,-1022.39 1264.16,-1016.39 1264.16,-1016.39 1264.16,-988.43 1264.16,-988.43 1264.16,-982.43 1270.16,-976.43 1276.16,-976.43 1276.16,-976.43 1479.84,-976.43 1479.84,-976.43 1485.84,-976.43 1491.84,-982.43 1491.84,-988.43 1491.84,-988.43 1491.84,-1016.39 1491.84,-1016.39 1491.84,-1022.39 1485.84,-1028.39 1479.84,-1028.39" class="f-srv s-srv"/>
<text xml:space="preserve" text-anchor="middle" x="1378" y="-1012.89" font-family="Helvetica,sans-Serif" font-size="9.50" class="t-ink">upsert assignment</text>
<text xml:space="preserve" text-anchor="middle" x="1378" y="-1003.14" font-family="Helvetica,sans-Serif" font-size="9.50" class="t-ink">ON CONFLICT DO NOTHING RETURNING id,</text>
<text xml:space="preserve" text-anchor="middle" x="1378" y="-993.39" font-family="Helvetica,sans-Serif" font-size="9.50" class="t-ink">falling back to SELECT — avoids a write</text>
<text xml:space="preserve" text-anchor="middle" x="1378" y="-983.64" font-family="Helvetica,sans-Serif" font-size="9.50" class="t-ink">lock on the conflicting row</text>
</g>

<g id="node20" class="node">
<title>ver</title>
<path stroke-width="1.3" d="M1480.96,-899.43C1480.96,-899.43 1275.04,-899.43 1275.04,-899.43 1269.04,-899.43 1263.04,-893.43 1263.04,-887.43 1263.04,-887.43 1263.04,-869.22 1263.04,-869.22 1263.04,-863.22 1269.04,-857.22 1275.04,-857.22 1275.04,-857.22 1480.96,-857.22 1480.96,-857.22 1486.96,-857.22 1492.96,-863.22 1492.96,-869.22 1492.96,-869.22 1492.96,-887.43 1492.96,-887.43 1492.96,-893.43 1486.96,-899.43 1480.96,-899.43" class="f-srv s-srv"/>
<text xml:space="preserve" text-anchor="middle" x="1378" y="-883.93" font-family="Helvetica,sans-Serif" font-size="9.50" class="t-ink">allocate version_index</text>
<text xml:space="preserve" text-anchor="middle" x="1378" y="-874.18" font-family="Helvetica,sans-Serif" font-size="9.50" class="t-ink">raw FOR UPDATE over the cohort&#39;s rows so two</text>
<text xml:space="preserve" text-anchor="middle" x="1378" y="-864.43" font-family="Helvetica,sans-Serif" font-size="9.50" class="t-ink">workers cannot claim the same index</text>
</g>

<g id="edge21" class="edge">

<path fill="none" stroke-width="1.15" d="M1378,-975.82C1378,-955.85 1378,-928.15 1378,-907.54" class="s-edge"/>
<polygon stroke-width="1.15" points="1380.1,-907.77 1378,-901.77 1375.9,-907.77 1380.1,-907.77" class="a-edge s-edge"/>
</g>

<g id="node21" class="node">
<title>mv</title>
<path stroke-width="1.3" d="M1451.34,-780.22C1451.34,-780.22 1304.66,-780.22 1304.66,-780.22 1298.66,-780.22 1292.66,-774.22 1292.66,-768.22 1292.66,-768.22 1292.66,-747.76 1292.66,-747.76 1292.66,-741.76 1298.66,-735.76 1304.66,-735.76 1304.66,-735.76 1451.34,-735.76 1451.34,-735.76 1457.34,-735.76 1463.34,-741.76 1463.34,-747.76 1463.34,-747.76 1463.34,-768.22 1463.34,-768.22 1463.34,-774.22 1457.34,-780.22 1451.34,-780.22" class="f-srv s-srv"/>
<text xml:space="preserve" text-anchor="middle" x="1378" y="-764.72" font-family="Helvetica,sans-Serif" font-size="9.50" class="t-ink">move blob</text>
<text xml:space="preserve" text-anchor="middle" x="1378" y="-754.97" font-family="Helvetica,sans-Serif" font-size="9.50" class="t-ink">staging key → final key, inside the</text>
<text xml:space="preserve" text-anchor="middle" x="1378" y="-742.97" font-family="Helvetica,sans-Serif" font-size="9.50" class="t-ink">transaction</text>
</g>

<g id="edge22" class="edge">

<path fill="none" stroke-width="1.15" d="M1378,-856.71C1378,-837.72 1378,-809.35 1378,-788.06" class="s-edge"/>
<polygon stroke-width="1.15" points="1380.1,-788.31 1378,-782.31 1375.9,-788.31 1380.1,-788.31" class="a-edge s-edge"/>
</g>

<g id="node22" class="node">
<title>strip</title>
<path stroke-width="2" d="M1356.64,-645.89C1356.64,-645.89 1175.36,-645.89 1175.36,-645.89 1169.95,-645.89 1164.54,-640.48 1164.54,-635.07 1164.54,-635.07 1164.54,-624.25 1164.54,-624.25 1164.54,-618.84 1169.95,-613.43 1175.36,-613.43 1175.36,-613.43 1356.64,-613.43 1356.64,-613.43 1362.05,-613.43 1367.46,-618.84 1367.46,-624.25 1367.46,-624.25 1367.46,-635.07 1367.46,-635.07 1367.46,-640.48 1362.05,-645.89 1356.64,-645.89" class="f-rec s-rec"/>
<text xml:space="preserve" text-anchor="middle" x="1266" y="-630.38" font-family="Helvetica,sans-Serif" font-size="9.50" class="t-ink">STRIP student source</text>
<text xml:space="preserve" text-anchor="middle" x="1266" y="-620.63" font-family="Helvetica,sans-Serif" font-size="9.50" class="t-ink">the stored blob becomes provenance&#45;only</text>
</g>

<g id="edge24" class="edge">

<path fill="none" stroke-width="1.15" d="M1358.75,-735.27C1338.22,-712.12 1305.9,-675.66 1285.34,-652.47" class="s-edge"/>
<polygon stroke-width="1.15" points="1287.09,-651.28 1281.54,-648.18 1283.95,-654.06 1287.09,-651.28" class="a-edge s-edge"/>
</g>

<g id="node26" class="node">
<title>fail</title>
<path stroke-width="1.3" d="M1553.84,-650.76C1553.84,-650.76 1422.16,-650.76 1422.16,-650.76 1416.16,-650.76 1410.16,-644.76 1410.16,-638.76 1410.16,-638.76 1410.16,-620.55 1410.16,-620.55 1410.16,-614.55 1416.16,-608.55 1422.16,-608.55 1422.16,-608.55 1553.84,-608.55 1553.84,-608.55 1559.84,-608.55 1565.84,-614.55 1565.84,-620.55 1565.84,-620.55 1565.84,-638.76 1565.84,-638.76 1565.84,-644.76 1559.84,-650.76 1553.84,-650.76" class="f-bad s-bad"/>
<text xml:space="preserve" text-anchor="middle" x="1488" y="-635.73" font-family="Helvetica,sans-Serif" font-size="9.00" class="t-ink">rollback</text>
<text xml:space="preserve" text-anchor="middle" x="1488" y="-625.98" font-family="Helvetica,sans-Serif" font-size="9.00" class="t-ink">blob orphan left for the retention</text>
<text xml:space="preserve" text-anchor="middle" x="1488" y="-616.23" font-family="Helvetica,sans-Serif" font-size="9.00" class="t-ink">sweep — non&#45;fatal by design</text>
</g>

<g id="edge23" class="edge">

<path fill="none" stroke-width="1.15" stroke-dasharray="5,2" d="M1396.91,-735.27C1415.82,-713.55 1444.93,-680.12 1465.13,-656.92" class="s-bad"/>
<polygon stroke-width="1.15" points="1466.57,-658.47 1468.92,-652.57 1463.4,-655.71 1466.57,-658.47" class="a-bad s-bad"/>
<text xml:space="preserve" text-anchor="middle" x="1461.42" y="-689.97" font-family="Helvetica,sans-Serif" font-size="8.20" class="t-hum">blob write fails</text>
</g>

<g id="node23" class="node">
<title>ins</title>
<path stroke-width="1.3" d="M1379.52,-531.55C1379.52,-531.55 1194.48,-531.55 1194.48,-531.55 1189.08,-531.55 1183.66,-526.14 1183.66,-520.73 1183.66,-520.73 1183.66,-509.91 1183.66,-509.91 1183.66,-504.5 1189.08,-499.09 1194.48,-499.09 1194.48,-499.09 1379.52,-499.09 1379.52,-499.09 1384.92,-499.09 1390.34,-504.5 1390.34,-509.91 1390.34,-509.91 1390.34,-520.73 1390.34,-520.73 1390.34,-526.14 1384.92,-531.55 1379.52,-531.55" class="f-srv s-srv"/>
<text xml:space="preserve" text-anchor="middle" x="1287" y="-516.05" font-family="Helvetica,sans-Serif" font-size="9.50" class="t-ink">insert submission, per_file_stats,</text>
<text xml:space="preserve" text-anchor="middle" x="1287" y="-506.3" font-family="Helvetica,sans-Serif" font-size="9.50" class="t-ink">validation_results (+ submitted shas), flags</text>
</g>

<g id="edge25" class="edge">

<path fill="none" stroke-width="1.15" d="M1269.01,-612.56C1272.58,-593.43 1278.58,-561.37 1282.66,-539.55" class="s-edge"/>
<polygon stroke-width="1.15" points="1284.71,-540.02 1283.74,-533.73 1280.58,-539.25 1284.71,-540.02" class="a-edge s-edge"/>
</g>

<g id="node24" class="node">
<title>contrib</title>
<path stroke-width="1.3" d="M1435.21,-422.09C1435.21,-422.09 1176.79,-422.09 1176.79,-422.09 1170.79,-422.09 1164.79,-416.09 1164.79,-410.09 1164.79,-410.09 1164.79,-362.63 1164.79,-362.63 1164.79,-356.63 1170.79,-350.63 1176.79,-350.63 1176.79,-350.63 1435.21,-350.63 1435.21,-350.63 1441.21,-350.63 1447.21,-356.63 1447.21,-362.63 1447.21,-362.63 1447.21,-410.09 1447.21,-410.09 1447.21,-416.09 1441.21,-422.09 1435.21,-422.09" class="f-fmt s-fmt"/>
<text xml:space="preserve" text-anchor="middle" x="1306" y="-407.06" font-family="Helvetica,sans-Serif" font-size="9.00" class="t-ink">finalizeContributors — AFTER heuristics, deliberately</text>
<text xml:space="preserve" text-anchor="middle" x="1306" y="-397.31" font-family="Helvetica,sans-Serif" font-size="9.00" class="t-ink">establishBundleContributors MUTATES the bundle and several</text>
<text xml:space="preserve" text-anchor="middle" x="1306" y="-387.56" font-family="Helvetica,sans-Serif" font-size="9.00" class="t-ink">heuristics read that stamp, so stamping earlier would change</text>
<text xml:space="preserve" text-anchor="middle" x="1306" y="-377.81" font-family="Helvetica,sans-Serif" font-size="9.00" class="t-ink">which flags an ingest produces. Roster side and bundle side</text>
<text xml:space="preserve" text-anchor="middle" x="1306" y="-368.06" font-family="Helvetica,sans-Serif" font-size="9.00" class="t-ink">reconcile onto ONE row per person; unattributed and</text>
<text xml:space="preserve" text-anchor="middle" x="1306" y="-358.31" font-family="Helvetica,sans-Serif" font-size="9.00" class="t-ink">unverifiable sessions get NO row.</text>
</g>

<g id="edge26" class="edge">

<path fill="none" stroke-width="1.15" d="M1289.37,-498.5C1291.92,-481.46 1296.08,-453.64 1299.6,-430.09" class="s-edge"/>
<polygon stroke-width="1.15" points="1301.65,-430.58 1300.47,-424.34 1297.5,-429.96 1301.65,-430.58" class="a-edge s-edge"/>
</g>

<g id="node27" class="node">
<title>xf</title>
<path stroke-width="1.3" d="M1383.52,-265.63C1383.52,-265.63 1228.48,-265.63 1228.48,-265.63 1223.08,-265.63 1217.66,-260.22 1217.66,-254.81 1217.66,-254.81 1217.66,-243.99 1217.66,-243.99 1217.66,-238.58 1223.08,-233.17 1228.48,-233.17 1228.48,-233.17 1383.52,-233.17 1383.52,-233.17 1388.92,-233.17 1394.34,-238.58 1394.34,-243.99 1394.34,-243.99 1394.34,-254.81 1394.34,-254.81 1394.34,-260.22 1388.92,-265.63 1383.52,-265.63" class="f-ana s-ana"/>
<text xml:space="preserve" text-anchor="middle" x="1306" y="-250.13" font-family="Helvetica,sans-Serif" font-size="9.50" class="t-ink">cohort&#45;wide correlation</text>
<text xml:space="preserve" text-anchor="middle" x="1306" y="-240.38" font-family="Helvetica,sans-Serif" font-size="9.50" class="t-ink">shared paste · editing&#45;pattern clone</text>
</g>

<g id="edge27" class="edge">

<path fill="none" stroke-width="1.15" d="M1306,-350.25C1306,-326.15 1306,-294.83 1306,-273.75" class="s-ana"/>
<polygon stroke-width="1.15" points="1308.1,-273.95 1306,-267.95 1303.9,-273.95 1308.1,-273.95" class="a-ana s-ana"/>
<text xml:space="preserve" text-anchor="middle" x="1318.75" y="-304.84" font-family="Helvetica,sans-Serif" font-size="8.20" class="t-hum">commit</text>
</g>

<g id="edge20" class="edge">

<path fill="none" stroke-width="1.15" d="M1378,-1130.88C1378,-1100.67 1378,-1062.97 1378,-1036.44" class="s-bad"/>
<polygon stroke-width="1.15" points="1380.1,-1036.66 1378,-1030.66 1375.9,-1036.66 1380.1,-1036.66" class="a-bad s-bad"/>
<text xml:space="preserve" text-anchor="middle" x="1454.12" y="-1085.6" font-family="Helvetica,sans-Serif" font-size="8.20" class="t-hum">RE&#45;CHECK each key inside its own lock —</text>
<text xml:space="preserve" text-anchor="middle" x="1454.12" y="-1076.6" font-family="Helvetica,sans-Serif" font-size="8.20" class="t-hum">a hit here is handled exactly as a</text>
<text xml:space="preserve" text-anchor="middle" x="1454.12" y="-1067.6" font-family="Helvetica,sans-Serif" font-size="8.20" class="t-hum">phase&#45;2 hit: attach, do not create</text>
</g>

<g id="node28" class="node">
<title>xp</title>
<path stroke-width="1.3" d="M1361.39,-156.17C1361.39,-156.17 1250.61,-156.17 1250.61,-156.17 1245.2,-156.17 1239.79,-150.76 1239.79,-145.35 1239.79,-145.35 1239.79,-134.53 1239.79,-134.53 1239.79,-129.12 1245.2,-123.71 1250.61,-123.71 1250.61,-123.71 1361.39,-123.71 1361.39,-123.71 1366.8,-123.71 1372.21,-129.12 1372.21,-134.53 1372.21,-134.53 1372.21,-145.35 1372.21,-145.35 1372.21,-150.76 1366.8,-156.17 1361.39,-156.17" class="f-ana s-ana"/>
<text xml:space="preserve" text-anchor="middle" x="1306" y="-140.66" font-family="Helvetica,sans-Serif" font-size="9.50" class="t-ink">cross_flags + participants</text>
<text xml:space="preserve" text-anchor="middle" x="1306" y="-130.91" font-family="Helvetica,sans-Serif" font-size="9.50" class="t-ink">+ exclusion register</text>
</g>

<g id="edge28" class="edge">

<path fill="none" stroke-width="1.15" d="M1306,-232.54C1306,-214.5 1306,-184.88 1306,-164.22" class="s-edge"/>
<polygon stroke-width="1.15" points="1308.1,-164.25 1306,-158.25 1303.9,-164.25 1308.1,-164.25" class="a-edge s-edge"/>
</g>

<g id="node29" class="node">
<title>done</title>
<path stroke-width="2" d="M1407.46,-46.71C1407.46,-46.71 1204.54,-46.71 1204.54,-46.71 1198.54,-46.71 1192.54,-40.71 1192.54,-34.71 1192.54,-34.71 1192.54,-12 1192.54,-12 1192.54,-6 1198.54,0 1204.54,0 1204.54,0 1407.46,0 1407.46,0 1413.46,0 1419.46,-6 1419.46,-12 1419.46,-12 1419.46,-34.71 1419.46,-34.71 1419.46,-40.71 1413.46,-46.71 1407.46,-46.71" class="f-ana s-ana"/>
<text xml:space="preserve" text-anchor="middle" x="1306" y="-30.73" font-family="Helvetica,sans-Serif" font-size="10.00" class="t-ink">cohort is ready</text>
<text xml:space="preserve" text-anchor="middle" x="1306" y="-19.48" font-family="Helvetica,sans-Serif" font-size="10.00" class="t-ink">a retry of this whole pipeline produces</text>
<text xml:space="preserve" text-anchor="middle" x="1306" y="-8.23" font-family="Helvetica,sans-Serif" font-size="10.00" class="t-ink">byte&#45;identical flags and stats — tests assert it</text>
</g>

<g id="edge29" class="edge">

<path fill="none" stroke-width="1.15" d="M1306,-123.49C1306,-106 1306,-77.08 1306,-54.98" class="s-edge"/>
<polygon stroke-width="1.15" points="1308.1,-55.21 1306,-49.21 1303.9,-55.21 1308.1,-55.21" class="a-edge s-edge"/>
</g>
</g>
</svg>